<?xml version="1.0" standalone="no"?>
<!DOCTYPE svg PUBLIC "-//W3C//DTD SVG 20010904//EN"
 "http://www.w3.org/TR/2001/REC-SVG-20010904/DTD/svg10.dtd">
<svg version="1.0" xmlns="http://www.w3.org/2000/svg"
 width="520.000000pt" height="520.000000pt" viewBox="0 0 520.000000 520.000000"
 preserveAspectRatio="xMidYMid meet">
<metadata>
Created by potrace 1.11, written by Peter Selinger 2001-2013
</metadata>
<g transform="translate(0.000000,520.000000) scale(0.100000,-0.100000)"
fill="#000000" stroke="none">
<path d="M559 5088 c-1 -2 -2 -102 -3 -223 -1 -121 -5 -226 -10 -234 -5 -8 -5
-12 0 -9 5 4 10 -294 11 -728 2 -582 0 -733 -10 -728 -8 5 -7 2 2 -9 11 -14
11 -17 0 -17 -9 0 -10 -3 -3 -8 15 -9 14 -73 0 -65 -8 5 -8 2 0 -8 16 -20 17
-559 1 -578 -9 -11 -9 -13 0 -8 9 6 12 -170 12 -760 0 -423 0 -793 0 -823 0
-30 -1 -197 -1 -370 0 -223 -4 -317 -12 -322 -8 -6 -7 -8 2 -8 6 0 12 -9 12
-20 0 -22 15 -24 129 -21 30 1 60 -4 69 -11 9 -8 13 -8 9 -2 -10 16 212 17
232 1 11 -9 13 -9 8 -1 -10 16 212 17 232 1 11 -9 13 -9 8 0 -5 8 31 11 134
12 78 0 144 3 147 6 3 3 7 366 8 808 1 441 2 806 3 810 0 5 6 5 13 1 7 -4 8
-3 4 5 -4 6 -11 9 -15 7 -4 -3 -7 126 -7 286 l0 290 31 -34 c64 -73 101 -117
135 -158 19 -24 42 -51 51 -59 8 -9 53 -61 100 -116 115 -136 120 -143 151
-177 15 -17 25 -35 22 -39 -3 -5 1 -9 8 -9 8 0 20 -10 28 -22 8 -11 23 -28 33
-37 9 -8 17 -19 17 -23 0 -4 12 -20 28 -35 15 -16 56 -62 92 -103 36 -41 69
-80 75 -86 5 -6 26 -30 45 -54 19 -24 52 -62 72 -84 21 -23 38 -44 38 -47 0
-3 27 -34 60 -69 32 -35 57 -67 54 -72 -3 -4 2 -8 11 -8 9 0 14 -4 11 -9 -3
-5 2 -12 11 -15 16 -7 26 2 93 80 40 47 133 157 155 182 11 13 29 34 40 46 11
13 41 47 67 77 25 30 54 64 65 75 65 77 110 130 123 146 8 11 26 32 40 47 14
16 43 50 65 76 22 27 45 53 50 59 6 6 37 42 70 81 33 38 70 81 82 95 12 14 31
36 43 50 129 153 196 229 202 229 4 1 6 -126 5 -281 -2 -229 -5 -282 -15 -280
-8 1 -11 -2 -7 -8 3 -6 11 -8 16 -5 12 8 11 -12 -2 -37 -8 -15 -8 -19 0 -14
14 9 14 0 0 -26 -8 -15 -8 -19 0 -14 6 4 11 2 11 -3 0 -6 -5 -11 -11 -11 -8 0
-8 -4 0 -14 9 -10 9 -16 1 -21 -8 -5 -8 -10 0 -20 8 -10 8 -15 0 -20 -8 -5 -8
-10 0 -20 8 -10 8 -15 0 -20 -8 -5 -8 -11 1 -21 9 -11 9 -17 -1 -29 -7 -8 -8
-15 -3 -15 5 0 9 -9 10 -20 1 -11 -2 -18 -8 -15 -5 4 -4 -6 2 -22 6 -15 11
-28 12 -29 1 0 -4 -8 -12 -17 -7 -10 -9 -17 -4 -17 5 0 9 -9 10 -20 1 -11 -2
-18 -8 -15 -5 4 -6 -3 0 -17 11 -30 11 -41 1 -53 -5 -6 -5 -17 0 -25 12 -19
13 -33 2 -26 -10 6 -9 -24 1 -41 4 -6 3 -15 -3 -18 -8 -5 -8 -11 0 -20 8 -10
8 -15 0 -20 -8 -5 -8 -10 0 -20 8 -9 8 -15 0 -20 -6 -3 -7 -12 -3 -18 12 -20
12 -131 -1 -139 -7 -5 -7 -8 -1 -8 6 0 12 -20 12 -45 1 -30 -2 -43 -9 -39 -7
5 -8 2 -2 -7 11 -18 12 -589 1 -589 -4 0 -5 -6 0 -12 11 -19 15 -50 5 -44 -5
3 -9 -1 -9 -8 0 -10 23 -14 86 -15 48 -1 92 -7 100 -14 11 -9 13 -9 8 0 -10
16 212 16 232 0 10 -8 12 -8 8 -1 -5 8 66 12 254 12 144 1 264 4 268 7 6 7 10
4882 3 4903 -2 6 -11 12 -20 12 -8 0 -13 -3 -9 -6 6 -6 -10 -26 -65 -83 -16
-15 -28 -31 -28 -35 0 -4 -19 -25 -42 -46 -23 -22 -38 -40 -33 -40 4 0 -6 -13
-23 -30 -18 -16 -30 -30 -27 -30 3 0 -16 -21 -40 -47 -25 -26 -45 -50 -45 -55
0 -5 -20 -28 -44 -53 -24 -25 -41 -45 -39 -45 2 0 -6 -10 -19 -23 -27 -28 -84
-94 -116 -136 -13 -16 -43 -50 -67 -75 -23 -25 -40 -47 -37 -50 3 -4 -2 -6
-12 -6 -9 0 -15 -4 -12 -9 4 -5 3 -11 -1 -13 -5 -1 -26 -25 -48 -53 -22 -27
-51 -62 -65 -77 -14 -15 -33 -38 -44 -52 -10 -14 -23 -23 -29 -19 -6 3 -7 1
-3 -5 3 -6 -2 -19 -12 -29 -10 -10 -40 -45 -68 -78 -27 -33 -53 -65 -59 -71
-31 -34 -134 -153 -195 -225 -25 -30 -60 -69 -77 -86 -18 -18 -33 -36 -33 -41
0 -14 -46 -53 -54 -45 -4 4 -4 1 -1 -8 3 -9 -5 -26 -22 -42 -15 -14 -40 -41
-54 -59 -41 -51 -195 -231 -224 -262 -6 -6 -28 -32 -49 -58 -21 -26 -43 -45
-49 -41 -5 3 -7 1 -3 -5 3 -5 -6 -20 -21 -32 -16 -12 -21 -18 -13 -14 13 7 13
5 1 -9 -7 -9 -18 -14 -24 -10 -5 3 -7 2 -4 -3 5 -10 -27 -50 -170 -216 l-32
-37 -54 62 c-30 34 -68 78 -83 97 -16 19 -33 40 -39 46 -15 17 -93 107 -196
229 -52 61 -106 124 -120 140 -24 27 -70 81 -132 155 -11 14 -48 57 -81 95
-34 39 -83 97 -111 130 -27 32 -80 93 -116 134 -36 42 -75 87 -87 101 -11 14
-31 36 -42 50 -80 92 -139 162 -230 270 -25 30 -63 74 -85 99 -41 47 -44 50
-85 101 -14 17 -39 45 -55 63 -17 18 -50 57 -75 87 -25 30 -53 63 -64 73 -10
9 -16 17 -13 17 4 0 -8 15 -26 34 -43 45 -127 142 -144 165 -7 11 -27 34 -45
53 -18 19 -48 53 -66 76 -19 22 -42 51 -53 63 -10 12 -19 26 -19 31 0 7 -38
12 -41 6z"/>
</g>
</svg>
